PathFileType	4	(X/Y/Z)	/Users/niels/Desktop/University/Third Semester/Perception and Action/Exam/Gymnastics Motion Tracking/Code for Gym Tracking/Analyzed Data/Webcam_Backflip/temp_id5_4_baseline_Sports2D/temp_id5_4_baseline_Sports2D_px_person00.trc
DataRate	CameraRate	NumFrames	NumMarkers	Units	OrigDataRate	OrigDataStartFrame	OrigNumFrames
29.810126582278482	29.810126582278482	10	22	m	29.810126582278482	79	158
Frame#	Time	Hip			RHip			RKnee			RAnkle			RBigToe			RSmallToe			RHeel			LHip			LKnee			LAnkle			LBigToe			LSmallToe			LHeel			Neck			Head			Nose			RShoulder			RElbow			RWrist			LShoulder			LElbow			LWrist		
		X1	Y1	Z1	X2	Y2	Z2	X3	Y3	Z3	X4	Y4	Z4	X5	Y5	Z5	X6	Y6	Z6	X7	Y7	Z7	X8	Y8	Z8	X9	Y9	Z9	X10	Y10	Z10	X11	Y11	Z11	X12	Y12	Z12	X13	Y13	Z13	X14	Y14	Z14	X15	Y15	Z15	X16	Y16	Z16	X17	Y17	Z17	X18	Y18	Z18	X19	Y19	Z19	X20	Y20	Z20	X21	Y21	Z21	X22	Y22	Z22
79	2.6501061571125266	0.7489486029916024	-0.5511401557385271	0.0	0.7568277706026092	-0.548342370711267	0.0	0.8563243476903954	-0.5926970822301421	0.0	0.9459068554545775	-0.6604508843107134	0.0	0.9968685412057172	-0.6452007004136897	0.0	0.998289785528706	-0.6568025625768819	0.0	0.9535787134245698	-0.6763646657057645	0.0	0.7423017468978413	-0.5531700406375546	0.0	0.7474993485030149	-0.6719616924793658	0.0	0.6877232260186051	-0.7684103895996423	0.0	0.7067559156768674	-0.795981684162648	0.0	0.6991975598630482	-0.7952898099735742	0.0	0.6755215122690753	-0.7803303937470939	0.0	0.7341332434587474	-0.4071870876620281	0.0	0.7625660540773702	-0.34004708204359013	0.0	0.7713632992527797	-0.3798532901145937	0.0	0.7229117329505721	-0.41525214281037487	0.0	0.6802089914649962	-0.4236274185792602	0.0	0.6662016156993762	-0.4098971355759793	0.0	0.7328161465014957	-0.41314834270745615	0.0	0.7506710522857882	-0.3932643530256164	0.0	0.7727678202046361	-0.35899634405378306	0.0
80	2.683651804670913	0.742024131313002	-0.5626950404164838	0.0	0.7510582217630359	-0.559303023165264	0.0	0.8492133763043129	-0.6031495320854938	0.0	0.9367821841374923	-0.6724896724450313	0.0	0.9868469527481873	-0.6604154888892886	0.0	0.988623017245809	-0.6711374096617592	0.0	0.944803714272519	-0.6885719016340099	0.0	0.7338204075138502	-0.5648103102363015	0.0	0.7359429396445001	-0.6837639381902801	0.0	0.6822052898890736	-0.7820342569908859	0.0	0.704146590118381	-0.8025500429577808	0.0	0.6947102829527648	-0.803518062776492	0.0	0.6711638743261591	-0.796082516339974	0.0	0.7262714930941013	-0.41809827220497875	0.0	0.752924744490165	-0.34973702857092687	0.0	0.7633002405376123	-0.3891133930060062	0.0	0.7158790612735915	-0.4275978458110596	0.0	0.6679610673707687	-0.44518565753079137	0.0	0.6395629206486088	-0.44095736258630175	0.0	0.7220896253766634	-0.42242003880813056	0.0	0.7406643805067298	-0.39653073939333955	0.0	0.7605642179406962	-0.36201291144964587	0.0
81	2.7171974522292994	0.7343831041562685	-0.5750727898132044	0.0	0.7434623440471901	-0.5715514159286321	0.0	0.8408055153182226	-0.6152865332785117	0.0	0.9256149078536695	-0.6877921441897427	0.0	0.9738785649756455	-0.6793593037895895	0.0	0.9755009290988567	-0.6893330784073	0.0	0.9334127561945429	-0.7036617041102203	0.0	0.7253330035606222	-0.5771043799012359	0.0	0.7266439055404528	-0.6957229269051954	0.0	0.6780756577698774	-0.7944758995345802	0.0	0.7026795957266642	-0.8079751330856404	0.0	0.6904103358566172	-0.8102354317032041	0.0	0.6681136880766575	-0.8097344125322294	0.0	0.7192163685058062	-0.42955882116405647	0.0	0.7444374277188333	-0.36077397119586013	0.0	0.7558261679186092	-0.3995199477885918	0.0	0.709721347865855	-0.44062762150296714	0.0	0.6599824815079967	-0.4690139379785097	0.0	0.618325030538226	-0.4770469586171209	0.0	0.711662821101861	-0.4330357316765871	0.0	0.7296842453326113	-0.4043729117704463	0.0	0.7464209845254657	-0.37091005075296374	0.0
82	2.7507430997876856	0.7264836362088639	-0.5871577721553136	0.0	0.7343267873439602	-0.5840527029934688	0.0	0.8314862791451753	-0.6283522144464685	0.0	0.9127684738596052	-0.7055167535797193	0.0	0.958495933841435	-0.7008661600112089	0.0	0.9595044048925709	-0.7103721467309123	0.0	0.9196606685392126	-0.7209829476411801	0.0	0.7176165923119255	-0.5888653944097119	0.0	0.719457856215688	-0.7070335621057301	0.0	0.67483129598957	-0.8056498423938007	0.0	0.7017798983742445	-0.8128761243722626	0.0	0.6862117383128205	-0.8156546350462421	0.0	0.6657101826647591	-0.8211552201515733	0.0	0.712849545032439	-0.440561929701458	0.0	0.7367662715044601	-0.37180130565112035	0.0	0.7488605336840468	-0.40968057059881646	0.0	0.7035121047110698	-0.45334060000958315	0.0	0.6544692979217064	-0.4926200123057825	0.0	0.6040980672657718	-0.5143469228281436	0.0	0.7028142171451837	-0.4442224753443022	0.0	0.7195998734046375	-0.4164181940195785	0.0	0.7321284111060811	-0.3846243443639627	0.0
83	2.7842887473460722	0.7188245383100059	-0.5979037324351165	0.0	0.7243596527263803	-0.5957040249072856	0.0	0.8218133555154782	-0.6415418815956625	0.0	0.8987533822099386	-0.7245146371034676	0.0	0.9419305335023003	-0.7235916386001597	0.0	0.9419294910522358	-0.732871826337845	0.0	0.9040580057957177	-0.7397103618844217	0.0	0.7112905522262218	-0.5991316134632182	0.0	0.7142556245209255	-0.7168069853397484	0.0	0.6722336664599651	-0.8153341164000906	0.0	0.701331272496448	-0.8176312584124967	0.0	0.6829799827740957	-0.8198729455238116	0.0	0.6635525234055788	-0.830309990265943	0.0	0.7069859231686842	-0.45023210407023107	0.0	0.7296015919664735	-0.3816510844676662	0.0	0.7423270709969098	-0.418444421393127	0.0	0.6963751950858514	-0.46476329614975664	0.0	0.6501305637427548	-0.5141209683296375	0.0	0.5973864634806546	-0.5492063439062853	0.0	0.6968949053544035	-0.45509358458589455	0.0	0.7129222414618299	-0.43151007573739225	0.0	0.7210679389438988	-0.40067075156892007	0.0
84	2.8178343949044584	0.7118321766995882	-0.6064187701626461	0.0	0.7144877925365201	-0.6054114182400321	0.0	0.8123191972468753	-0.6539376219489316	0.0	0.8841452250392825	-0.7433816353254763	0.0	0.9256160354642912	-0.7459251852586782	0.0	0.9243130824199896	-0.7550840429838687	0.0	0.887317763643575	-0.7586593768019589	0.0	0.7065964235412272	-0.6071569375457059	0.0	0.710787810692136	-0.7242743932498517	0.0	0.6702361931036432	-0.8231257686298716	0.0	0.7013993300847252	-0.8222385016226125	0.0	0.6816468813684905	-0.8228905695986789	0.0	0.6615634259388212	-0.8370865312060624	0.0	0.7014640886412208	-0.45783877445145055	0.0	0.7226219111993024	-0.38943057341045273	0.0	0.7361879491648584	-0.425032827854939	0.0	0.6879704061823216	-0.47405845491971177	0.0	0.6462974656003367	-0.5320996631457009	0.0	0.5975315129362366	-0.5787104722523372	0.0	0.6945873415928089	-0.464645043555786	0.0	0.7118249119499298	-0.4478303800809453	0.0	0.7174288813309343	-0.4157085473826788	0.0
85	2.851380042462845	0.7057656155562215	-0.6120477558890631	0.0	0.7055750680290243	-0.6122797616809458	0.0	0.8033509239096078	-0.6645315608431671	0.0	0.8693669036951058	-0.7605991942590306	0.0	0.9103847113292186	-0.7660102254831697	0.0	0.90769137393588	-0.7750803258082	0.0	0.8701578214010873	-0.7763139437553491	0.0	0.7033470183445696	-0.6124006366708905	0.0	0.7085705497915914	-0.7289579982605993	0.0	0.6688597322316302	-0.8285671219596745	0.0	0.7018793013676383	-0.8263238639060531	0.0	0.6822320096932029	-0.8247061790889502	0.0	0.6599225993332618	-0.8413826441567668	0.0	0.6962095628966464	-0.46279767216549256	0.0	0.7155623775888761	-0.39447907274204336	0.0	0.7304277552379486	-0.4290366475980919	0.0	0.6786773015811425	-0.4805984630851658	0.0	0.6427366879868391	-0.5455310064790615	0.0	0.6031377279076385	-0.600979474237851	0.0	0.6953664825576591	-0.4718348599255622	0.0	0.7166324882542807	-0.46351342340307566	0.0	0.7234007534427603	-0.4275834495132446	0.0
86	2.8849256900212312	0.7007047994050081	-0.614430322534096	0.0	0.698157925445871	-0.6157682239160657	0.0	0.7950614303974276	-0.6724066091920969	0.0	0.8545581675269309	-0.7747467160374	0.0	0.8962071729325904	-0.7820979664981793	0.0	0.8922458927700055	-0.7911288668214511	0.0	0.8531048581952139	-0.7911336678292016	0.0	0.7011514660159106	-0.6145580007157111	0.0	0.7069678007832778	-0.7307253938562931	0.0	0.6680717062956174	-0.8313187375583452	0.0	0.702517265264376	-0.8292509114309351	0.0	0.6838627782278038	-0.8253223546271826	0.0	0.6588542027765697	-0.8432254398885657	0.0	0.6912133535506298	-0.46474391149159433	0.0	0.7083808749318371	-0.39638143119844	0.0	0.7249805207910519	-0.43030405577674274	0.0	0.6693361889059203	-0.48399296086584664	0.0	0.6394710443120275	-0.553879077693094	0.0	0.6124299524247252	-0.615231617535186	0.0	0.6977908505367807	-0.47583089697728015	0.0	0.7253533831378316	-0.47718294974675673	0.0	0.7372207336570319	-0.4366466106686621	0.0
87	2.918471337579618	0.69662142409523	-0.6135203914991423	0.0	0.6923448773376388	-0.6157203614877864	0.0	0.7875056247174212	-0.6769494853571836	0.0	0.8396370841161843	-0.784791272981065	0.0	0.8825838669055828	-0.7931868500061999	0.0	0.8775144338048698	-0.8021917494684463	0.0	0.8363725199585613	-0.8019401816548342	0.0	0.6996800220911285	-0.6135611526059155	0.0	0.7054278244905052	-0.7296393673125038	0.0	0.6677382412308017	-0.8312281502607536	0.0	0.7031550044398488	-0.8303706184552087	0.0	0.6856094423678544	-0.8247062347327037	0.0	0.6584376736415473	-0.8427080105541459	0.0	0.6865177137689936	-0.4635783977711834	0.0	0.7012977980536905	-0.3949969988367695	0.0	0.7197654052179164	-0.4287611538395742	0.0	0.6607620107571927	-0.48412561609982757	0.0	0.6366506492325045	-0.5571891663426863	0.0	0.6234841578379937	-0.6217117496183654	0.0	0.7004268619036442	-0.4762503123066185	0.0	0.7351265906574905	-0.48791238452361335	0.0	0.7549990146653194	-0.4445352949990528	0.0
88	2.952016985138004	0.6934571580951612	-0.6095834641136743	0.0	0.6879557473337993	-0.6123378037744371	0.0	0.7807083098031905	-0.6779788267584238	0.0	0.8243684702731445	-0.7903365952440541	0.0	0.8688770345358692	-0.799412231780868	0.0	0.8627396897286269	-0.8082564375315238	0.0	0.8198217646557636	-0.8081614601375547	0.0	0.6987345887374673	-0.6095877585749144	0.0	0.7036524658818514	-0.7258293545293721	0.0	0.6676911664799813	-0.8283363940880184	0.0	0.7037224927207234	-0.8293582909768774	0.0	0.6869887131604646	-0.8228745920408601	0.0	0.6585917831864065	-0.8398939260231791	0.0	0.6822243515453367	-0.4594358494031749	0.0	0.6946146853362405	-0.3904410136194294	0.0	0.7147850049718704	-0.4243947919304897	0.0	0.6534221855629951	-0.4812088011975963	0.0	0.6344230675406463	-0.5560378636481482	0.0	0.6344753603686153	-0.6214935207834961	0.0	0.7024798157873159	-0.4731870795986027	0.0	0.7436952247863957	-0.4951101185784096	0.0	0.7732631441519947	-0.4526027952378763	0.0
